<svg xmlns="http://www.w3.org/2000/svg" width="800" height="420" viewBox="0 0 800 420">
  <defs>
    <linearGradient id="bg-gradient" x1="0%" y1="0%" x2="100%" y2="100%">
      <stop offset="0%" style="stop-color:#1e1b4b"/>
      <stop offset="100%" style="stop-color:#312e81"/>
    </linearGradient>
    <linearGradient id="commit-gradient" x1="0%" y1="0%" x2="100%" y2="0%">
      <stop offset="0%" style="stop-color:#22c55e"/>
      <stop offset="100%" style="stop-color:#64ffda"/>
    </linearGradient>
    <filter id="glow" x="-20%" y="-20%" width="140%" height="140%">
      <feGaussianBlur stdDeviation="2" result="coloredBlur"/>
      <feMerge>
        <feMergeNode in="coloredBlur"/>
        <feMergeNode in="SourceGraphic"/>
      </feMerge>
    </filter>
  </defs>

  <!-- Background -->
  <rect width="800" height="420" rx="12" fill="url(#bg-gradient)"/>
  <rect width="800" height="420" rx="12" fill="none" stroke="#64ffda" stroke-width="1" stroke-opacity="0.3"/>

  <!-- Header -->
  <g transform="translate(25, 25)">
    <text font-family="'Segoe UI', Arial, sans-serif" font-size="16" fill="#64ffda" font-weight="600">
      💻 Alan's Developer Dashboard
    </text>
  </g>

  <!-- Metrics Row -->
  
    <g transform="translate(25, 50)">
      
    <g transform="translate(0, 0)">
      <text font-family="'Segoe UI', Arial, sans-serif" font-size="18" fill="#ffffff" font-weight="bold">
        📦 42
      </text>
      <text y="16" font-family="'Segoe UI', Arial, sans-serif" font-size="10" fill="#8892b0">
        Repos
      </text>
    </g>
      
    <g transform="translate(120, 0)">
      <text font-family="'Segoe UI', Arial, sans-serif" font-size="18" fill="#ffffff" font-weight="bold">
        ⭐ 128
      </text>
      <text y="16" font-family="'Segoe UI', Arial, sans-serif" font-size="10" fill="#8892b0">
        Stars
      </text>
    </g>
      
    <g transform="translate(240, 0)">
      <text font-family="'Segoe UI', Arial, sans-serif" font-size="18" fill="#ffffff" font-weight="bold">
        🔀 12/10
      </text>
      <text y="16" font-family="'Segoe UI', Arial, sans-serif" font-size="10" fill="#8892b0">
        PRs
      </text>
    </g>
      
    <g transform="translate(360, 0)">
      <text font-family="'Segoe UI', Arial, sans-serif" font-size="18" fill="#ffffff" font-weight="bold">
        🐛 7
      </text>
      <text y="16" font-family="'Segoe UI', Arial, sans-serif" font-size="10" fill="#8892b0">
        Issues
      </text>
    </g>
      
    <g transform="translate(480, 0)">
      <text font-family="'Segoe UI', Arial, sans-serif" font-size="18" fill="#ffffff" font-weight="bold">
        👥 33
      </text>
      <text y="16" font-family="'Segoe UI', Arial, sans-serif" font-size="10" fill="#8892b0">
        Followers
      </text>
    </g>
      
    <g transform="translate(600, 0)">
      <text font-family="'Segoe UI', Arial, sans-serif" font-size="18" fill="#ffffff" font-weight="bold">
        📊 85
      </text>
      <text y="16" font-family="'Segoe UI', Arial, sans-serif" font-size="10" fill="#8892b0">
        Commits
      </text>
    </g>
    </g>

  <!-- Section Labels -->
  <g transform="translate(25, 95)">
    <text font-family="'Segoe UI', Arial, sans-serif" font-size="11" fill="#8892b0" font-weight="500">
      📈 Commits (Last 30 Days)
    </text>
  </g>
  <g transform="translate(400, 95)">
    <text font-family="'Segoe UI', Arial, sans-serif" font-size="11" fill="#8892b0" font-weight="500">
      🕐 Activity Pattern (Day × Hour)
    </text>
  </g>

  <!-- Sparkline Panel -->
  <g transform="translate(0, 5)">
    
    <g transform="translate(25, 100)">
      <rect width="350" height="50" rx="4" fill="#1e1e2e"/>
      <g transform="translate(0, 0)">
        <path d="M0.0,33.3 L12.1,8.3 L24.1,25.0 L36.2,50.0 L48.3,41.7 L60.3,16.7 L72.4,0.0 L84.5,33.3 L96.6,25.0 L108.6,8.3 L120.7,41.7 L132.8,50.0 L144.8,33.3 L156.9,16.7 L169.0,25.0 L181.0,8.3 L193.1,33.3 L205.2,41.7 L217.2,50.0 L229.3,25.0 L241.4,16.7 L253.4,33.3 L265.5,8.3 L277.6,0.0 L289.7,25.0 L301.7,33.3 L313.8,41.7 L325.9,16.7 L337.9,25.0 L350.0,33.3" fill="none" stroke="#22c55e" stroke-width="2" stroke-linecap="round"/>
      </g>
    </g>
  </g>

  <!-- Activity Heatmap -->
  <rect x="400.0" y="100.0" width="14.6" height="6.1" rx="1" fill="#22c55e" fill-opacity="0.10"/>
<rect x="415.6" y="100.0" width="14.6" height="6.1" rx="1" fill="#22c55e" fill-opacity="0.10"/>
<rect x="431.2" y="100.0" width="14.6" height="6.1" rx="1" fill="#22c55e" fill-opacity="0.10"/>
<rect x="446.9" y="100.0" width="14.6" height="6.1" rx="1" fill="#22c55e" fill-opacity="0.10"/>
<rect x="462.5" y="100.0" width="14.6" height="6.1" rx="1" fill="#22c55e" fill-opacity="0.10"/>
<rect x="478.1" y="100.0" width="14.6" height="6.1" rx="1" fill="#22c55e" fill-opacity="0.10"/>
<rect x="493.8" y="100.0" width="14.6" height="6.1" rx="1" fill="#22c55e" fill-opacity="0.10"/>
<rect x="509.4" y="100.0" width="14.6" height="6.1" rx="1" fill="#22c55e" fill-opacity="0.33"/>
<rect x="525.0" y="100.0" width="14.6" height="6.1" rx="1" fill="#22c55e" fill-opacity="0.47"/>
<rect x="540.6" y="100.0" width="14.6" height="6.1" rx="1" fill="#22c55e" fill-opacity="0.60"/>
<rect x="556.2" y="100.0" width="14.6" height="6.1" rx="1" fill="#22c55e" fill-opacity="0.73"/>
<rect x="571.9" y="100.0" width="14.6" height="6.1" rx="1" fill="#22c55e" fill-opacity="0.60"/>
<rect x="587.5" y="100.0" width="14.6" height="6.1" rx="1" fill="#22c55e" fill-opacity="0.47"/>
<rect x="603.1" y="100.0" width="14.6" height="6.1" rx="1" fill="#22c55e" fill-opacity="0.33"/>
<rect x="618.8" y="100.0" width="14.6" height="6.1" rx="1" fill="#22c55e" fill-opacity="0.47"/>
<rect x="634.4" y="100.0" width="14.6" height="6.1" rx="1" fill="#22c55e" fill-opacity="0.60"/>
<rect x="650.0" y="100.0" width="14.6" height="6.1" rx="1" fill="#22c55e" fill-opacity="0.73"/>
<rect x="665.6" y="100.0" width="14.6" height="6.1" rx="1" fill="#22c55e" fill-opacity="0.60"/>
<rect x="681.2" y="100.0" width="14.6" height="6.1" rx="1" fill="#22c55e" fill-opacity="0.47"/>
<rect x="696.9" y="100.0" width="14.6" height="6.1" rx="1" fill="#22c55e" fill-opacity="0.33"/>
<rect x="712.5" y="100.0" width="14.6" height="6.1" rx="1" fill="#22c55e" fill-opacity="0.10"/>
<rect x="728.1" y="100.0" width="14.6" height="6.1" rx="1" fill="#22c55e" fill-opacity="0.10"/>
<rect x="743.8" y="100.0" width="14.6" height="6.1" rx="1" fill="#22c55e" fill-opacity="0.10"/>
<rect x="759.4" y="100.0" width="14.6" height="6.1" rx="1" fill="#22c55e" fill-opacity="0.10"/>
<rect x="400.0" y="107.1" width="14.6" height="6.1" rx="1" fill="#22c55e" fill-opacity="0.10"/>
<rect x="415.6" y="107.1" width="14.6" height="6.1" rx="1" fill="#22c55e" fill-opacity="0.10"/>
<rect x="431.2" y="107.1" width="14.6" height="6.1" rx="1" fill="#22c55e" fill-opacity="0.10"/>
<rect x="446.9" y="107.1" width="14.6" height="6.1" rx="1" fill="#22c55e" fill-opacity="0.10"/>
<rect x="462.5" y="107.1" width="14.6" height="6.1" rx="1" fill="#22c55e" fill-opacity="0.10"/>
<rect x="478.1" y="107.1" width="14.6" height="6.1" rx="1" fill="#22c55e" fill-opacity="0.10"/>
<rect x="493.8" y="107.1" width="14.6" height="6.1" rx="1" fill="#22c55e" fill-opacity="0.33"/>
<rect x="509.4" y="107.1" width="14.6" height="6.1" rx="1" fill="#22c55e" fill-opacity="0.47"/>
<rect x="525.0" y="107.1" width="14.6" height="6.1" rx="1" fill="#22c55e" fill-opacity="0.60"/>
<rect x="540.6" y="107.1" width="14.6" height="6.1" rx="1" fill="#22c55e" fill-opacity="0.73"/>
<rect x="556.2" y="107.1" width="14.6" height="6.1" rx="1" fill="#22c55e" fill-opacity="0.87"/>
<rect x="571.9" y="107.1" width="14.6" height="6.1" rx="1" fill="#22c55e" fill-opacity="0.73"/>
<rect x="587.5" y="107.1" width="14.6" height="6.1" rx="1" fill="#22c55e" fill-opacity="0.60"/>
<rect x="603.1" y="107.1" width="14.6" height="6.1" rx="1" fill="#22c55e" fill-opacity="0.47"/>
<rect x="618.8" y="107.1" width="14.6" height="6.1" rx="1" fill="#22c55e" fill-opacity="0.60"/>
<rect x="634.4" y="107.1" width="14.6" height="6.1" rx="1" fill="#22c55e" fill-opacity="0.73"/>
<rect x="650.0" y="107.1" width="14.6" height="6.1" rx="1" fill="#22c55e" fill-opacity="0.87"/>
<rect x="665.6" y="107.1" width="14.6" height="6.1" rx="1" fill="#22c55e" fill-opacity="0.73"/>
<rect x="681.2" y="107.1" width="14.6" height="6.1" rx="1" fill="#22c55e" fill-opacity="0.60"/>
<rect x="696.9" y="107.1" width="14.6" height="6.1" rx="1" fill="#22c55e" fill-opacity="0.47"/>
<rect x="712.5" y="107.1" width="14.6" height="6.1" rx="1" fill="#22c55e" fill-opacity="0.33"/>
<rect x="728.1" y="107.1" width="14.6" height="6.1" rx="1" fill="#22c55e" fill-opacity="0.10"/>
<rect x="743.8" y="107.1" width="14.6" height="6.1" rx="1" fill="#22c55e" fill-opacity="0.10"/>
<rect x="759.4" y="107.1" width="14.6" height="6.1" rx="1" fill="#22c55e" fill-opacity="0.10"/>
<rect x="400.0" y="114.3" width="14.6" height="6.1" rx="1" fill="#22c55e" fill-opacity="0.10"/>
<rect x="415.6" y="114.3" width="14.6" height="6.1" rx="1" fill="#22c55e" fill-opacity="0.10"/>
<rect x="431.2" y="114.3" width="14.6" height="6.1" rx="1" fill="#22c55e" fill-opacity="0.10"/>
<rect x="446.9" y="114.3" width="14.6" height="6.1" rx="1" fill="#22c55e" fill-opacity="0.10"/>
<rect x="462.5" y="114.3" width="14.6" height="6.1" rx="1" fill="#22c55e" fill-opacity="0.10"/>
<rect x="478.1" y="114.3" width="14.6" height="6.1" rx="1" fill="#22c55e" fill-opacity="0.33"/>
<rect x="493.8" y="114.3" width="14.6" height="6.1" rx="1" fill="#22c55e" fill-opacity="0.47"/>
<rect x="509.4" y="114.3" width="14.6" height="6.1" rx="1" fill="#22c55e" fill-opacity="0.60"/>
<rect x="525.0" y="114.3" width="14.6" height="6.1" rx="1" fill="#22c55e" fill-opacity="0.73"/>
<rect x="540.6" y="114.3" width="14.6" height="6.1" rx="1" fill="#22c55e" fill-opacity="0.87"/>
<rect x="556.2" y="114.3" width="14.6" height="6.1" rx="1" fill="#22c55e" fill-opacity="1.00"/>
<rect x="571.9" y="114.3" width="14.6" height="6.1" rx="1" fill="#22c55e" fill-opacity="0.87"/>
<rect x="587.5" y="114.3" width="14.6" height="6.1" rx="1" fill="#22c55e" fill-opacity="0.73"/>
<rect x="603.1" y="114.3" width="14.6" height="6.1" rx="1" fill="#22c55e" fill-opacity="0.60"/>
<rect x="618.8" y="114.3" width="14.6" height="6.1" rx="1" fill="#22c55e" fill-opacity="0.73"/>
<rect x="634.4" y="114.3" width="14.6" height="6.1" rx="1" fill="#22c55e" fill-opacity="0.87"/>
<rect x="650.0" y="114.3" width="14.6" height="6.1" rx="1" fill="#22c55e" fill-opacity="1.00"/>
<rect x="665.6" y="114.3" width="14.6" height="6.1" rx="1" fill="#22c55e" fill-opacity="0.87"/>
<rect x="681.2" y="114.3" width="14.6" height="6.1" rx="1" fill="#22c55e" fill-opacity="0.73"/>
<rect x="696.9" y="114.3" width="14.6" height="6.1" rx="1" fill="#22c55e" fill-opacity="0.60"/>
<rect x="712.5" y="114.3" width="14.6" height="6.1" rx="1" fill="#22c55e" fill-opacity="0.47"/>
<rect x="728.1" y="114.3" width="14.6" height="6.1" rx="1" fill="#22c55e" fill-opacity="0.33"/>
<rect x="743.8" y="114.3" width="14.6" height="6.1" rx="1" fill="#22c55e" fill-opacity="0.10"/>
<rect x="759.4" y="114.3" width="14.6" height="6.1" rx="1" fill="#22c55e" fill-opacity="0.10"/>
<rect x="400.0" y="121.4" width="14.6" height="6.1" rx="1" fill="#22c55e" fill-opacity="0.10"/>
<rect x="415.6" y="121.4" width="14.6" height="6.1" rx="1" fill="#22c55e" fill-opacity="0.10"/>
<rect x="431.2" y="121.4" width="14.6" height="6.1" rx="1" fill="#22c55e" fill-opacity="0.10"/>
<rect x="446.9" y="121.4" width="14.6" height="6.1" rx="1" fill="#22c55e" fill-opacity="0.10"/>
<rect x="462.5" y="121.4" width="14.6" height="6.1" rx="1" fill="#22c55e" fill-opacity="0.10"/>
<rect x="478.1" y="121.4" width="14.6" height="6.1" rx="1" fill="#22c55e" fill-opacity="0.10"/>
<rect x="493.8" y="121.4" width="14.6" height="6.1" rx="1" fill="#22c55e" fill-opacity="0.33"/>
<rect x="509.4" y="121.4" width="14.6" height="6.1" rx="1" fill="#22c55e" fill-opacity="0.47"/>
<rect x="525.0" y="121.4" width="14.6" height="6.1" rx="1" fill="#22c55e" fill-opacity="0.60"/>
<rect x="540.6" y="121.4" width="14.6" height="6.1" rx="1" fill="#22c55e" fill-opacity="0.73"/>
<rect x="556.2" y="121.4" width="14.6" height="6.1" rx="1" fill="#22c55e" fill-opacity="0.87"/>
<rect x="571.9" y="121.4" width="14.6" height="6.1" rx="1" fill="#22c55e" fill-opacity="0.73"/>
<rect x="587.5" y="121.4" width="14.6" height="6.1" rx="1" fill="#22c55e" fill-opacity="0.60"/>
<rect x="603.1" y="121.4" width="14.6" height="6.1" rx="1" fill="#22c55e" fill-opacity="0.47"/>
<rect x="618.8" y="121.4" width="14.6" height="6.1" rx="1" fill="#22c55e" fill-opacity="0.60"/>
<rect x="634.4" y="121.4" width="14.6" height="6.1" rx="1" fill="#22c55e" fill-opacity="0.73"/>
<rect x="650.0" y="121.4" width="14.6" height="6.1" rx="1" fill="#22c55e" fill-opacity="0.87"/>
<rect x="665.6" y="121.4" width="14.6" height="6.1" rx="1" fill="#22c55e" fill-opacity="0.73"/>
<rect x="681.2" y="121.4" width="14.6" height="6.1" rx="1" fill="#22c55e" fill-opacity="0.60"/>
<rect x="696.9" y="121.4" width="14.6" height="6.1" rx="1" fill="#22c55e" fill-opacity="0.47"/>
<rect x="712.5" y="121.4" width="14.6" height="6.1" rx="1" fill="#22c55e" fill-opacity="0.33"/>
<rect x="728.1" y="121.4" width="14.6" height="6.1" rx="1" fill="#22c55e" fill-opacity="0.10"/>
<rect x="743.8" y="121.4" width="14.6" height="6.1" rx="1" fill="#22c55e" fill-opacity="0.10"/>
<rect x="759.4" y="121.4" width="14.6" height="6.1" rx="1" fill="#22c55e" fill-opacity="0.10"/>
<rect x="400.0" y="128.6" width="14.6" height="6.1" rx="1" fill="#22c55e" fill-opacity="0.10"/>
<rect x="415.6" y="128.6" width="14.6" height="6.1" rx="1" fill="#22c55e" fill-opacity="0.10"/>
<rect x="431.2" y="128.6" width="14.6" height="6.1" rx="1" fill="#22c55e" fill-opacity="0.10"/>
<rect x="446.9" y="128.6" width="14.6" height="6.1" rx="1" fill="#22c55e" fill-opacity="0.10"/>
<rect x="462.5" y="128.6" width="14.6" height="6.1" rx="1" fill="#22c55e" fill-opacity="0.10"/>
<rect x="478.1" y="128.6" width="14.6" height="6.1" rx="1" fill="#22c55e" fill-opacity="0.10"/>
<rect x="493.8" y="128.6" width="14.6" height="6.1" rx="1" fill="#22c55e" fill-opacity="0.10"/>
<rect x="509.4" y="128.6" width="14.6" height="6.1" rx="1" fill="#22c55e" fill-opacity="0.33"/>
<rect x="525.0" y="128.6" width="14.6" height="6.1" rx="1" fill="#22c55e" fill-opacity="0.47"/>
<rect x="540.6" y="128.6" width="14.6" height="6.1" rx="1" fill="#22c55e" fill-opacity="0.60"/>
<rect x="556.2" y="128.6" width="14.6" height="6.1" rx="1" fill="#22c55e" fill-opacity="0.73"/>
<rect x="571.9" y="128.6" width="14.6" height="6.1" rx="1" fill="#22c55e" fill-opacity="0.60"/>
<rect x="587.5" y="128.6" width="14.6" height="6.1" rx="1" fill="#22c55e" fill-opacity="0.47"/>
<rect x="603.1" y="128.6" width="14.6" height="6.1" rx="1" fill="#22c55e" fill-opacity="0.33"/>
<rect x="618.8" y="128.6" width="14.6" height="6.1" rx="1" fill="#22c55e" fill-opacity="0.47"/>
<rect x="634.4" y="128.6" width="14.6" height="6.1" rx="1" fill="#22c55e" fill-opacity="0.60"/>
<rect x="650.0" y="128.6" width="14.6" height="6.1" rx="1" fill="#22c55e" fill-opacity="0.73"/>
<rect x="665.6" y="128.6" width="14.6" height="6.1" rx="1" fill="#22c55e" fill-opacity="0.60"/>
<rect x="681.2" y="128.6" width="14.6" height="6.1" rx="1" fill="#22c55e" fill-opacity="0.47"/>
<rect x="696.9" y="128.6" width="14.6" height="6.1" rx="1" fill="#22c55e" fill-opacity="0.33"/>
<rect x="712.5" y="128.6" width="14.6" height="6.1" rx="1" fill="#22c55e" fill-opacity="0.10"/>
<rect x="728.1" y="128.6" width="14.6" height="6.1" rx="1" fill="#22c55e" fill-opacity="0.10"/>
<rect x="743.8" y="128.6" width="14.6" height="6.1" rx="1" fill="#22c55e" fill-opacity="0.10"/>
<rect x="759.4" y="128.6" width="14.6" height="6.1" rx="1" fill="#22c55e" fill-opacity="0.10"/>
<rect x="400.0" y="135.7" width="14.6" height="6.1" rx="1" fill="#22c55e" fill-opacity="0.10"/>
<rect x="415.6" y="135.7" width="14.6" height="6.1" rx="1" fill="#22c55e" fill-opacity="0.10"/>
<rect x="431.2" y="135.7" width="14.6" height="6.1" rx="1" fill="#22c55e" fill-opacity="0.10"/>
<rect x="446.9" y="135.7" width="14.6" height="6.1" rx="1" fill="#22c55e" fill-opacity="0.10"/>
<rect x="462.5" y="135.7" width="14.6" height="6.1" rx="1" fill="#22c55e" fill-opacity="0.10"/>
<rect x="478.1" y="135.7" width="14.6" height="6.1" rx="1" fill="#22c55e" fill-opacity="0.10"/>
<rect x="493.8" y="135.7" width="14.6" height="6.1" rx="1" fill="#22c55e" fill-opacity="0.10"/>
<rect x="509.4" y="135.7" width="14.6" height="6.1" rx="1" fill="#22c55e" fill-opacity="0.10"/>
<rect x="525.0" y="135.7" width="14.6" height="6.1" rx="1" fill="#22c55e" fill-opacity="0.33"/>
<rect x="540.6" y="135.7" width="14.6" height="6.1" rx="1" fill="#22c55e" fill-opacity="0.47"/>
<rect x="556.2" y="135.7" width="14.6" height="6.1" rx="1" fill="#22c55e" fill-opacity="0.47"/>
<rect x="571.9" y="135.7" width="14.6" height="6.1" rx="1" fill="#22c55e" fill-opacity="0.47"/>
<rect x="587.5" y="135.7" width="14.6" height="6.1" rx="1" fill="#22c55e" fill-opacity="0.33"/>
<rect x="603.1" y="135.7" width="14.6" height="6.1" rx="1" fill="#22c55e" fill-opacity="0.10"/>
<rect x="618.8" y="135.7" width="14.6" height="6.1" rx="1" fill="#22c55e" fill-opacity="0.33"/>
<rect x="634.4" y="135.7" width="14.6" height="6.1" rx="1" fill="#22c55e" fill-opacity="0.47"/>
<rect x="650.0" y="135.7" width="14.6" height="6.1" rx="1" fill="#22c55e" fill-opacity="0.47"/>
<rect x="665.6" y="135.7" width="14.6" height="6.1" rx="1" fill="#22c55e" fill-opacity="0.47"/>
<rect x="681.2" y="135.7" width="14.6" height="6.1" rx="1" fill="#22c55e" fill-opacity="0.33"/>
<rect x="696.9" y="135.7" width="14.6" height="6.1" rx="1" fill="#22c55e" fill-opacity="0.10"/>
<rect x="712.5" y="135.7" width="14.6" height="6.1" rx="1" fill="#22c55e" fill-opacity="0.10"/>
<rect x="728.1" y="135.7" width="14.6" height="6.1" rx="1" fill="#22c55e" fill-opacity="0.10"/>
<rect x="743.8" y="135.7" width="14.6" height="6.1" rx="1" fill="#22c55e" fill-opacity="0.10"/>
<rect x="759.4" y="135.7" width="14.6" height="6.1" rx="1" fill="#22c55e" fill-opacity="0.10"/>
<rect x="400.0" y="142.9" width="14.6" height="6.1" rx="1" fill="#22c55e" fill-opacity="0.10"/>
<rect x="415.6" y="142.9" width="14.6" height="6.1" rx="1" fill="#22c55e" fill-opacity="0.10"/>
<rect x="431.2" y="142.9" width="14.6" height="6.1" rx="1" fill="#22c55e" fill-opacity="0.10"/>
<rect x="446.9" y="142.9" width="14.6" height="6.1" rx="1" fill="#22c55e" fill-opacity="0.10"/>
<rect x="462.5" y="142.9" width="14.6" height="6.1" rx="1" fill="#22c55e" fill-opacity="0.10"/>
<rect x="478.1" y="142.9" width="14.6" height="6.1" rx="1" fill="#22c55e" fill-opacity="0.10"/>
<rect x="493.8" y="142.9" width="14.6" height="6.1" rx="1" fill="#22c55e" fill-opacity="0.10"/>
<rect x="509.4" y="142.9" width="14.6" height="6.1" rx="1" fill="#22c55e" fill-opacity="0.10"/>
<rect x="525.0" y="142.9" width="14.6" height="6.1" rx="1" fill="#22c55e" fill-opacity="0.10"/>
<rect x="540.6" y="142.9" width="14.6" height="6.1" rx="1" fill="#22c55e" fill-opacity="0.33"/>
<rect x="556.2" y="142.9" width="14.6" height="6.1" rx="1" fill="#22c55e" fill-opacity="0.33"/>
<rect x="571.9" y="142.9" width="14.6" height="6.1" rx="1" fill="#22c55e" fill-opacity="0.33"/>
<rect x="587.5" y="142.9" width="14.6" height="6.1" rx="1" fill="#22c55e" fill-opacity="0.10"/>
<rect x="603.1" y="142.9" width="14.6" height="6.1" rx="1" fill="#22c55e" fill-opacity="0.10"/>
<rect x="618.8" y="142.9" width="14.6" height="6.1" rx="1" fill="#22c55e" fill-opacity="0.10"/>
<rect x="634.4" y="142.9" width="14.6" height="6.1" rx="1" fill="#22c55e" fill-opacity="0.33"/>
<rect x="650.0" y="142.9" width="14.6" height="6.1" rx="1" fill="#22c55e" fill-opacity="0.33"/>
<rect x="665.6" y="142.9" width="14.6" height="6.1" rx="1" fill="#22c55e" fill-opacity="0.33"/>
<rect x="681.2" y="142.9" width="14.6" height="6.1" rx="1" fill="#22c55e" fill-opacity="0.10"/>
<rect x="696.9" y="142.9" width="14.6" height="6.1" rx="1" fill="#22c55e" fill-opacity="0.10"/>
<rect x="712.5" y="142.9" width="14.6" height="6.1" rx="1" fill="#22c55e" fill-opacity="0.10"/>
<rect x="728.1" y="142.9" width="14.6" height="6.1" rx="1" fill="#22c55e" fill-opacity="0.10"/>
<rect x="743.8" y="142.9" width="14.6" height="6.1" rx="1" fill="#22c55e" fill-opacity="0.10"/>
<rect x="759.4" y="142.9" width="14.6" height="6.1" rx="1" fill="#22c55e" fill-opacity="0.10"/>

  <!-- Section Labels for Bottom Row -->
  <g transform="translate(25, 175)">
    <text font-family="'Segoe UI', Arial, sans-serif" font-size="11" fill="#8892b0" font-weight="500">
      🏆 Top Repositories
    </text>
  </g>
  <g transform="translate(400, 175)">
    <text font-family="'Segoe UI', Arial, sans-serif" font-size="11" fill="#8892b0" font-weight="500">
      💬 Languages
    </text>
  </g>

  <!-- Top Repositories -->
  
        <g transform="translate(25, 185)">
          <text font-family="'Segoe UI', Arial, sans-serif" font-size="10" fill="#8892b0" 
                dominant-baseline="middle" y="7">profile</text>
          <rect x="100" y="0" width="210.0" height="14" 
                rx="2" fill="#3b82f6"/>
          <text x="315.0" y="7" font-family="'Segoe UI', Arial, sans-serif" 
                font-size="9" fill="#8892b0" dominant-baseline="middle">
            138
          </text>
        </g>

        <g transform="translate(25, 203)">
          <text font-family="'Segoe UI', Arial, sans-serif" font-size="10" fill="#8892b0" 
                dominant-baseline="middle" y="7">dotfiles</text>
          <rect x="100" y="0" width="138.5" height="14" 
                rx="2" fill="#3b82f6"/>
          <text x="243.47826086956522" y="7" font-family="'Segoe UI', Arial, sans-serif" 
                font-size="9" fill="#8892b0" dominant-baseline="middle">
            91
          </text>
        </g>

        <g transform="translate(25, 221)">
          <text font-family="'Segoe UI', Arial, sans-serif" font-size="10" fill="#8892b0" 
                dominant-baseline="middle" y="7">scripts</text>
          <rect x="100" y="0" width="102.0" height="14" 
                rx="2" fill="#3b82f6"/>
          <text x="206.95652173913044" y="7" font-family="'Segoe UI', Arial, sans-serif" 
                font-size="9" fill="#8892b0" dominant-baseline="middle">
            67
          </text>
        </g>

        <g transform="translate(25, 239)">
          <text font-family="'Segoe UI', Arial, sans-serif" font-size="10" fill="#8892b0" 
                dominant-baseline="middle" y="7">configs</text>
          <rect x="100" y="0" width="68.5" height="14" 
                rx="2" fill="#3b82f6"/>
          <text x="173.47826086956522" y="7" font-family="'Segoe UI', Arial, sans-serif" 
                font-size="9" fill="#8892b0" dominant-baseline="middle">
            45
          </text>
        </g>

        <g transform="translate(25, 257)">
          <text font-family="'Segoe UI', Arial, sans-serif" font-size="10" fill="#8892b0" 
                dominant-baseline="middle" y="7">tools</text>
          <rect x="100" y="0" width="48.7" height="14" 
                rx="2" fill="#3b82f6"/>
          <text x="153.69565217391306" y="7" font-family="'Segoe UI', Arial, sans-serif" 
                font-size="9" fill="#8892b0" dominant-baseline="middle">
            32
          </text>
        </g>

  <!-- Languages Distribution -->
  
    <g clip-path="url(#lang-clip)">
      <rect x="400.0" y="185" width="150.8" height="16" fill="#3572A5"/><rect x="550.8" y="185" width="94.1" height="16" fill="#f1e05a"/><rect x="644.9" y="185" width="58.1" height="16" fill="#3178c6"/><rect x="703.0" y="185" width="30.0" height="16" fill="#00ADD8"/><rect x="733.0" y="185" width="22.5" height="16" fill="#8892b0"/><rect x="755.5" y="185" width="19.5" height="16" fill="#89e051"/>
    </g>
    <defs>
      <clipPath id="lang-clip">
        <rect x="400" y="185" width="375" height="16" rx="4"/>
      </clipPath>
    </defs>
    
        <g transform="translate(400, 211)">
          <rect width="8" height="8" rx="2" fill="#3572A5"/>
          <text x="12" font-family="'Segoe UI', Arial, sans-serif" font-size="9" fill="#8892b0" 
                dominant-baseline="middle" y="4">
            Python 40.2%
          </text>
        </g>
        <g transform="translate(525, 211)">
          <rect width="8" height="8" rx="2" fill="#f1e05a"/>
          <text x="12" font-family="'Segoe UI', Arial, sans-serif" font-size="9" fill="#8892b0" 
                dominant-baseline="middle" y="4">
            JavaScript 25.1%
          </text>
        </g>
        <g transform="translate(650, 211)">
          <rect width="8" height="8" rx="2" fill="#3178c6"/>
          <text x="12" font-family="'Segoe UI', Arial, sans-serif" font-size="9" fill="#8892b0" 
                dominant-baseline="middle" y="4">
            TypeScript 15.5%
          </text>
        </g>
        <g transform="translate(400, 225)">
          <rect width="8" height="8" rx="2" fill="#00ADD8"/>
          <text x="12" font-family="'Segoe UI', Arial, sans-serif" font-size="9" fill="#8892b0" 
                dominant-baseline="middle" y="4">
            Go 8.0%
          </text>
        </g>
        <g transform="translate(525, 225)">
          <rect width="8" height="8" rx="2" fill="#8892b0"/>
          <text x="12" font-family="'Segoe UI', Arial, sans-serif" font-size="9" fill="#8892b0" 
                dominant-baseline="middle" y="4">
            Other 6.0%
          </text>
        </g>
        <g transform="translate(650, 225)">
          <rect width="8" height="8" rx="2" fill="#89e051"/>
          <text x="12" font-family="'Segoe UI', Arial, sans-serif" font-size="9" fill="#8892b0" 
                dominant-baseline="middle" y="4">
            Shell 5.2%
          </text>
        </g>
    

  <!-- Footer: Updated timestamp -->
  <g transform="translate(25, 405)">
    <text font-family="'Segoe UI', Arial, sans-serif" font-size="10" fill="#4a5568">
      Updated: 2025-12-02 12:00 PM
    </text>
  </g>

  <!-- Decorative accent -->
  <rect x="784" y="15" width="4" height="390" rx="2" fill="#64ffda" fill-opacity="0.3"/>
</svg>